# xmcd
#
# Track frame offsets:
#   192795
#   193545
#   194295
#   195045
#   195795
#   196545
#   197295
#   198045
#   198795
#   199545
#   200295
#   201045
#
# Disc length: 2692 seconds
#
# Revision: 0
# Processed by: cddbd v1.5.1PL2 Copyright (c) Steve Scherf et al.
# Submitted via: GXTranscoder 2.0.1939
#
DISCID=99007a0c
DTITLE=Alan Jakson - What I do
DYEAR=2004
DGENRE=Blues
TTITLE0=Too much of a good thing
TTITLE1=Rainy day in June
TTITLE2=USA today
TTITLE3=If love was a river
TTITLE4=If french fries were fat free
TTITLE5=You dont have to paint
TTITLE6=There ya go
TTITLE7=The talkin song repair blues
TTITLE8=Strong enough
TTITLE9=Monday morning church
TTITLE10=Burnin the honky tonks down
TTITLE11=To do what I do
EXTD=
EXTT0=
EXTT1=
EXTT2=
EXTT3=
EXTT4=
EXTT5=
EXTT6=
EXTT7=
EXTT8=
EXTT9=
EXTT10=
EXTT11=
PLAYORDER=
